<?xml version="1.0" encoding="UTF-8"?>
<svg id="Layer_2" data-name="Layer 2" xmlns="http://www.w3.org/2000/svg" viewBox="0 0 184.92 258.45">
  <defs>
    <style>
      .cls-1 {
        fill: none;
      }

      .cls-2 {
        fill: #5e6959;
      }

      .cls-3 {
        fill: #4a6792;
      }

      .cls-4 {
        fill: #a6c0c9;
      }

      .cls-5 {
        fill: #9a988e;
      }

      .cls-6 {
        fill: #ffde17;
      }

      .cls-7 {
        fill: #607da0;
      }

      .cls-8 {
        fill: #f2f2f2;
      }

      .cls-9 {
        fill: #a35563;
      }

      .cls-10 {
        fill: #77aab6;
      }

      .cls-11 {
        fill: #a9c3a4;
      }
    </style>
  </defs>
  <g id="Layer_8" data-name="Layer 8">
    <g>
      <path class="cls-1" d="M53.64,91.8c0,21.47,17.46,38.93,38.93,38.93s38.93-17.46,38.93-38.93c0-7.54-2.16-14.58-5.88-20.55-.5-.77-1.03-1.52-1.58-2.25.02,0,.03-.02.05-.03-7.08-9.75-18.58-16.11-31.52-16.11-21.47,0-38.93,17.46-38.93,38.93Z"/>
      <path class="cls-6" d="M184.75,83.18c-1.01-20.56-8.34-42.56-22.61-57.67C140.09,2.16,109.93.64,102.19.13c-.41-.03-1.01-.07-1.77-.08.66.04,1.18.07,1.56.08,7.74.51,37.91,2.03,59.95,25.38,10.12,10.73,16.75,24.92,20.1,39.6.35.98.59,2.03.79,3.14-.05-.05-.1-.09-.15-.15,1,5.03,1.61,10.09,1.86,15.08,1.18,23.95-3.77,44.53-14.66,62.94-12.31,20.81-31.01,49.73-44.75,66.98-9.89,12.41-27.21,33.28-35.84,45.21.05.05.08.09.12.14,8.6-11.91,26.02-32.89,35.95-45.35,13.74-17.25,32.44-46.17,44.75-66.98,10.89-18.41,15.84-38.99,14.66-62.94Z"/>
      <path class="cls-7" d="M54.88,171.51c.7-1.23.16-2.83-.89-2.77-4.91,2.77-9.8,5.64-14.98,7.18-1.39.92-1.15,3.41.63,3.25,1.69-.16,5.14-1.87,6.88-2.68,1.27-.59,7.77-3.95,8.35-4.99Z"/>
      <path class="cls-7" d="M76.45,165.83c1.97-.18,6.48-2.32,8.47-3.38.7-.37,3.6-1.98,3.95-2.54.37-.61.4-1.97.04-2.51-.12-.19-.44-.3-.62-.33-1.23-.2-5,2.47-6.5,3.18-1.74.81-4.33,1.32-5.83,2.25-1.47.92-.98,3.47.5,3.34Z"/>
      <path class="cls-7" d="M63.39,213.47c1.8.7,5.05,2.08,6.79,2.23,1.55.12,1.86-2.71.57-3.43l-11.7-4.07c-.49.57-.74,1.07-.81,1.52.47.74.94,1.48,1.41,2.22,1.25.77,2.97,1.23,3.73,1.53Z"/>
      <path class="cls-7" d="M93.05,226.13c2.46.22,12.22,3.89,13.82,3.26,2.37-.93.91-3.3-1.06-4.08-2.15-.85-8.86-2.65-11.06-2.82-2.64-.2-3.34,2.87-1.7,3.64Z"/>
      <path class="cls-2" d="M128.4,147.5c-.82-.98-2.32-3.05-1.42-4.66,1.13,1.19,3.01,5.15,4.51,3.12,1.55-2.08-1.1-3.74-1.98-4.98-.9-1.26-2.32-3.91-2.59-5.74-.29-1.98,1.59,1.52,1.73,1.64.69.59,2.09.38,2.18-1.02.1-1.54-.97-3.06-1.66-4.31-1.36-2.46-1.92-5.45-2.35-7.67-.21-1.06-.41-2.49-1.23-2.71-.52-.15-1.06.27-1.15.34-.99.77-.9,2.29-.96,3.61-.1,2.48-.54,4.47-1.53,7-.51,1.3-2.42,3.71-.97,5,1.15,1.01,2.05-1.08,2.88-1.96.26,2.05-.89,4.01-1.8,5.37-.89,1.32-3.58,3.06-2.05,5.15,1.58,2.16,3.69-3.12,4.22-2.28.18,1.53-.2,1.92-.85,2.84-1.02,1.42-2.65,2.83-3.9,3.75-.93.68-2.34.53-2.19,2.62.18,2.61,2.29,1.29,3.25.7,1.33-.83,2.37-2.31,3.68-3.08,0,3.17,0,6.34,0,9.52,0,1.14-.31,1.63.08,2.98.46,1.54,1.78,1.45,2.08,0,.08-.39.24-1.97.26-2.43.18-3.03-.13-6.44,0-9.51,1.41.25,4.59,4.54,5.93,2.86.38-.47.35-1.39.17-2-.29-1.03-3.5-3.1-4.39-4.15Z"/>
      <path class="cls-2" d="M139.29,182.15c-1.89-2.19-3.31-6.14-3.21-9.77.91.99,2.77,5.63,4.04,3.7,1.22-1.82-.55-3.03-1.11-4.02-3-5.3-2.24-13.12-3.19-19.3-.37-2.38-2.21-2.17-2.51-.06-.32,2.19-.22,5.37-.47,7.8-.33,3.09-1.19,8.34-2.48,10.74-.46.86-1.89,2.21-1.98,2.99-.33,3.22,1.73,2.06,2.81.81.27-.31,1.67-2.73,1.88-2.38-.27,2.91-1.14,6.4-2.53,8.53-.75,1.16-4.21,3.54-2.92,5.53,1.33,2.04,4.69-3.05,5.64-4.41v4.12c0,.72-2.66,3.47-3.2,3.96-.74.65-3.41,2.25-3.64,3.01-.25.83-.1,2.02.46,2.4,1.69,1.13,4.76-3.34,6.38-3.83v5.52c.87-1.22,1.74-2.45,2.63-3.71v-2.09c.25.11.57.37.97.7.58-.84,1.17-1.69,1.76-2.54-1.45-1.29-2.73-2.61-2.73-3.13v-4.11l3.21,3.52c.37.36.91.79,1.42.92.44-.65.89-1.29,1.33-1.95h0c-.25-1.39-1.84-2.11-2.56-2.95Z"/>
      <path class="cls-2" d="M87.16,249.54c.65-1.81-1.52-2.54-2.38-3.4-1.83-1.83-3.19-5.13-3.1-8.16.89.82,2.68,4.7,3.9,3.09,1.18-1.52-.53-2.53-1.07-3.36-2.88-4.43-2.16-10.96-3.08-16.13-.35-1.99-2.12-1.81-2.41-.05-.31,1.83-.21,4.5-.45,6.52-.32,2.59-1.15,6.97-2.39,8.98-.06.09-.13.2-.23.3.49.76.98,1.53,1.49,2.29.5-.66,1.21-1.61,1.36-1.4-.09.85-.25,1.75-.48,2.65,2.67,3.26,5.3,6.45,7.73,9.4h0c.46.08.89-.07,1.12-.72Z"/>
      <path class="cls-2" d="M158.53,149.07c-.34-1.7-1.79-1.96-2.28-.28-.33,4.88-.53,10.67-2.79,14.51-.49.83-2.25,2.19-1.18,3.89.29.46.58.65.88.65,2.2-3.43,4.34-6.83,6.38-10.15-.14-.72-.27-1.45-.39-2.18-.31-2.02-.28-4.77-.62-6.45Z"/>
      <path class="cls-2" d="M116.65,126.07c.05-.08.09-.17.12-.25-.39.27-.78.55-1.18.8.36.14.72.03,1.06-.56Z"/>
      <path class="cls-2" d="M106.4,134.21c1.28,1.64,2.99-1.15,3.86-2.44.45,2.27-1.01,3.95-2.1,5.06-1.07,1.09-3.67,2.05-3.21,4.39.65,3.29,4.16-1.46,5.03-1.93.22-.11.31-.26.48.13.41,1.02-.14,10.33.51,11.31.28.42,1.28.48,1.64.21.85-.64.38-4.31.37-5.39,0-2.04.02-4.08,0-6.12,1.36.93,3.98,4.42,5.44,2.97,2.39-2.37-1.95-4.02-3.05-5-1.34-1.2-3.03-2.95-2.38-5.63.48-.54,3.26,4.45,4.64,2.75,1.71-2.09-1.13-3.81-1.91-4.75-.46-.56-1.04-1.34-1.54-2.23-2.38,1.44-4.9,2.66-7.56,3.6h0c-.61,1-.97,2.09-.21,3.07Z"/>
      <path class="cls-9" d="M164.51,109.33c.83.13,1.72.29,2.65.47.32-1.17.57-2.39.76-3.61-4.18-.87-7.86-1.3-10.89-1.54-.34-.03-.69-.05-1.04-.07.1,1.32.29,2.62.76,3.82,2.79.22,5.43.55,7.75.92Z"/>
      <path class="cls-9" d="M122.07,198.53c-1.42-.31-5.64-.27-7.1,0-.4.08-.83.38-1.19.61-.49,1.25-.24,2.8.81,3.04,1.56.37,6.02.24,7.69.03.29-.04.77-.05.98-.37.93-1.41-.23-3.1-1.2-3.31Z"/>
      <path class="cls-9" d="M72.53,185.72c-1.76-.27-5.97-.31-7.7,0-1.65.29-1.45,3.1-.37,3.41,2.67-.34,5.84.47,8.44,0,.46-.08.84-.27,1.13-.86.17-.49.1-1.55-.14-1.92-.18-.26-1.07-.58-1.37-.63Z"/>
      <path class="cls-9" d="M90.78,192.31c-1.49,1.14-1.09,3.02.55,3.32,1.64.31,5.44.28,7.11.03,1.73-.25,2.38-1.96.74-3.39l-8.4.05Z"/>
      <path class="cls-9" d="M110.09,170.38c1.24-.25,7.74.52,8.3-.34.49-1.29.23-2.8-.81-3.04-1.14-.27-6.17-.28-7.3,0-1.37.34-1.45,2.72-.19,3.38Z"/>
      <path class="cls-9" d="M109.68,178.65c-1.3-.24-5.27-.29-6.5.04-1.48.4-1.42,3.04-.41,3.33,1.39-.34,7.29.6,8.08-.25,1.18-1.26.04-2.89-1.16-3.11Z"/>
      <path class="cls-9" d="M148.9,142.34c-1.03-.28-5.08-.28-6.11,0-1.6.43-1.77,3.12-.18,3.55,1.07.3,5,.28,6.13.05,1.88-.41,1.85-3.15.16-3.6Z"/>
      <path class="cls-9" d="M141.77,131.26c-1.23-.76-3.78-.06-5.17-.27-1.43.08-1.61,3.02-.39,3.56.51.22,4.39.19,5.02.04,1.22-.28,1.39-2.79.54-3.33Z"/>
      <path class="cls-9" d="M169.86,146.12c10.89-18.41,15.84-38.99,14.66-62.94-.25-4.99-.86-10.05-1.86-15.08.05.06.1.1.15.15-.2-1.11-.44-2.16-.79-3.14-3.36-14.68-9.98-28.88-20.1-39.6C139.88,2.16,109.71.64,101.97.13c-.38-.02-.9-.05-1.56-.08-.04,0-.07,0-.1,0-.27,0-.57-.02-.89-.03-.18,0-.37,0-.56,0-.47,0-.99,0-1.54,0s-1.16,0-1.8.02c-.71,0-1.46.04-2.25.07-.49.02-.99.05-1.52.08-.27.02-.55.03-.82.05-.51.04-1.04.07-1.57.11-16.67,1.25-45.79,7.16-68.31,31.42C18.53,34.48,1.59,57.46.12,84.27c-1.23,22.64,7.35,54.59,14.05,66.83,10.42,19.02,27.58,47.21,37.58,60.85,7.16,9.76,25.86,32.66,37.42,46.5.04-.05.07-.09.1-.14,8.63-11.93,25.96-32.8,35.84-45.21,13.74-17.25,32.44-46.17,44.75-66.98ZM181.7,83.32c.45,9.23-.02,17.97-1.43,26.29-3.02-1.07-5.9-1.92-8.6-2.59.18,1.35.42,2.67.81,4.02,2.2.59,4.58,1.34,7.1,2.27-1.22,5.94-2.94,11.66-5.16,17.2-.45,1.12-.92,2.23-1.41,3.34-.74,1.68-1.54,3.35-2.37,4.99-.64,1.26-1.3,2.51-2.01,3.74-.39.71-.78,1.39-1.2,2.09-2.41,4.09-5.07,8.47-7.89,13.02-2.05,3.32-4.18,6.72-6.38,10.15-3.68,5.77-7.49,11.6-11.3,17.25h0c-.44.67-.89,1.31-1.33,1.96-.64.93-1.27,1.87-1.9,2.79-.59.86-1.18,1.71-1.76,2.54-.33.47-.65.93-.97,1.39-.89,1.26-1.76,2.5-2.63,3.71-2.77,3.89-5.48,7.56-8.04,10.88-15.19-2.17-80.27-12.09-65.09-25.77,4.86-4.07,57.18-20.12,53.45-26.74-1.25-2.26-8.8,3.42-9.62,1.54-8.28-6.64-12.7-14.88-5.75-24.22,2.9-.39,5.71-1.08,8.4-2.05h0c2.66-.94,5.17-2.16,7.56-3.6.47-.29.94-.59,1.4-.9h0c.4-.25.79-.53,1.18-.8,4.87-3.48,8.96-7.96,11.97-13.16.57-.35,1.02-.65,1.19-.79,4.36-3.54,13.64-4.02,22.27-3.73.49-1.26.63-2.52.68-3.72-7.46-.23-16.15.35-21.41,2.6.59-1.52,1.1-3.06,1.52-4.66,12.09-11.46,16.17-22.68,22.43-38.07,1.64-1.02,3.22-2.13,4.78-3.26l.21,2.7,4.52-.95,2.57,1.54c.35,5.4.51,11.07,1.83,16.15-1.56,4.79-11.02,11.53-8.51,16.3,1.42.67,2.45-2.91,3.43-4.35,3.71-5.1,10.11-9.67,6.63-16.55-.5-2.78-.87-6.5-1.12-10.19l.07.04,3.34-3.3,3.42-.02c.83.77,1.67,1.53,2.49,2.29,1.42,5.98,2.32,12.23,2.64,18.62ZM16.65,149.75c-3.78-6.9-8.29-20.6-11.1-35.27,10.32,7.16,11.16-1.58,16.75,3.02,5.96,5.82,11.05,16.1,19.13,11.71,5.2-4.01,6.65-.08,11.46,2.23,11.85,3.19,15.32,2.09,24.71,9.79.92.74.4,2.26-.79,2.22-16.92-.46-42.14,6.83-57.69,10.75-.87-1.54-1.69-3.03-2.47-4.46ZM38.45,20.45c3.17.37,6.54,1.6,7.66,3.68.83.07,1.74-.3,1.68-1.11,3.87-.82,9.69.36,11.1,5.47,1.83,1.06,3.69.33,5.58,1.67,2.15,1.47,2.83,5.49.1,7.11-2.69,1.58-6.53.28-9.31,1.55-5.45-9.42-9.55-6.63-13.81,1.16-3.51.88-7.8.89-10.46-.63,1.07-4.03-6.14.61-10.91-1.65,1.39-2.02,2.48-3.4,3.05-4.01,4.86-5.23,10.03-9.58,15.31-13.21ZM127.85,69.48c1.39-1.38,2.97-3.11,4.58-5.2,1.61-2.09,2.42-3.15,2.82-4.11,1.49-3.62.11-6.49-1.08-11.92l2.22-1.84,4.18.45c2.87,3.57,5.8,7.1,8.63,10.41.94,2.38,1.67,4.76,3.55,6.48-5.96,13.72-8.4,23.59-18.74,33.3.22-1.72.33-3.47.33-5.24,0-8.2-2.38-15.86-6.48-22.33ZM135.76,44.36l-2.61,2.17-3.61-3.88-2.36,1.9-2.34,2.11-2.24-2.18,7.64-8.5c.21-.23.5-.35.79-.35.31,0,.59.13.81.39l8.02,8.79-4.11-.44ZM121.77,46.39l3.03,2.94,3.67-3.3.89-.72,2.87,3.09c1.25,5.12,2.12,7.3,1.04,10.29-.81,2.22-2.34,3.88-4.29,6-.91.99-1.81,1.83-2.65,2.54-3.32-4.54-7.53-8.4-12.37-11.29,2.77-2.96,5.29-6.27,7.8-9.56ZM124.09,68.98s-.03.02-.05.03c.56.74,1.08,1.48,1.58,2.25,3.72,5.97,5.88,13.01,5.88,20.55,0,21.47-17.47,38.93-38.93,38.93s-38.93-17.46-38.93-38.93,17.46-38.93,38.93-38.93c12.94,0,24.44,6.35,31.52,16.11ZM4.94,111.15c-1.58-9.17-2.44-18.55-1.99-26.73.13-2.36.39-4.69.75-6.98l4.35-.55c6.64,13.91,16.9,27.37,27.49,34.7,1.99,1.98-2.18,3.53-3.08,4.94-4.9,6.91-5.32.99-9.41-2.57-6.14-4.61-7.29,3.63-16.77-2.76-.58-.31-1.04-.28-1.35-.05ZM18.42,40.21c2.98,1.07,7.31,1.2,10.12.4,3.01,2.38,7.32,3.07,11.25,2.48-7.4,11.83-16.72,24.2-25.92,32.57-.81.74-1.72,2.12-2.51.99-.97-.4-3.03-7.65-4.87-11.05,3.3-10.55,8.21-19.57,11.92-25.39ZM40.11,48.2l2.5,2.43,3.67-3.3.14-.11c-2.05,20.24-3.97,27.93-22.89,44.73-2.71,3.89-7.71-6.53-9.36-10.23,6.47-10.9,17.95-21.2,25.94-33.53ZM53.58,45.66l-2.61,2.17-3.61-3.88-2.36,1.9-2.34,2.11-1.92-1.87,6.76-9.51c.07-.05.22-.09.39-.08.59,0,1.39.37,1.77.82l8.02,8.79-4.11-.44ZM4.05,75.42l1-5.18,2.16,4.78-3.16.4ZM33.29,105.97c-2.35-3.17-10.98-6.96-7.71-11.7,29.53-27.67,11.37-27.83,27.16-15-1.26,3.96-1.93,8.17-1.93,12.53,0,3.27.38,6.47,1.1,9.52-13.42,5.08-9.82,13.19-18.62,4.65ZM53.7,76.57c-3.72-3.9-7.05-9.27-6.94-13.15.48-1.78.8-9.33,1.56-15.57l2.49,2.67,3.39-2.82,4.23.46c2.9,4.06,6.34,8.62,9.22,10.17-6.2,4.63-11.08,10.93-13.95,18.25ZM66.77,130.88c-4.92-1.81-10.39-.95-15.08-3.67-5.67-4.82-6.47-4.22-12.59-.63-2.11,1.05-9.89-2.84-7.43-5,6.15-6.61,12.37-13.76,21.09-17.17,5.35,16.88,21.17,29.15,39.81,29.15.61,0,1.23,0,1.84-.05-5.6,9.8-.78,13.55-9.22,8.96-6.14-3.27-12.08-9.28-18.43-11.6ZM172.34,60.47l-2.82,2.79-4.26-2.55-3.08.65-.11-1.38,6.27-5.61,5.56,4.79,1.05,1.29-2.62.02ZM148.47,17.7c-5.53,1.46-11.83-3.51-11.5,1.06-4.24,2.16-9.48,1.85-13.62-.25-5.49,2.71-10.69,2.34-15.35-.9-4.24-.94-10.36,1.08-11.89-3.81-.87-5.17,3.86-5.83,7.29-6.18,1.94-1.04,2.39-2.85,3.45-4.28,4.82.47,11.82,1.45,19.56,3.83,8.16,2.5,15.54,6.02,22.06,10.54ZM97.33,2.83c1.09,0,2.02.02,2.77.05.74.03,1.32.07,1.68.08l.48.03c.18,0,.38.02.58.04-.24.45-.42.93-.55,1.42-15.31,1.18-10.97,17.98,1.51,16.53,1.21-.11,3.04-.23,4.01.75,3.83,2.86,11.22,2.32,15.48.6,5.88,1.99,12.11,1.88,16.97-1.58,3.66,1.01,7.96.75,11.36-.75,2.94,2.27,5.68,4.76,8.23,7.45,8.06,8.53,14.19,19.75,17.91,32.36-.14-.08-.28-.16-.43-.24-2.21-2.3-6.08-7.85-8.68-7.93-3.8-.11-9.34,7.99-13.37,8.76-3.55.82-2.62-6.23-8.93-10.77-.62-.82-1.21-1.6-1.77-2.36l.25.03-1.32-1.44c-17.61-23.49-10.16-14.45-32.19,8.63-5.64-2.85-12.01-4.45-18.74-4.45-7.78,0-15.06,2.14-21.3,5.85-.06-.04-.12-.07-.2-.09-3.36-1.25-6.2-4.06-8.75-7.23l.31.03-1.87-2.05c-1.38-1.85-2.69-3.74-3.97-5.45,2.61-.98,4.99.46,8.73-1.56,4.72-2.25,4.43-10.24-.89-11.86-1.3-.48-2.71-.74-4-.9-1.4-5.68-8.8-6.96-14.09-5.7-1.14-.93-2.74-2.16-4.46-3.01C63.88,4.61,86.8,2.83,97.33,2.83ZM122.89,211.34c-2.84,3.56-6.31,7.86-9.99,12.39-8.29,10.24-17.59,21.7-23.87,30.14-.96-1.15-1.96-2.36-2.99-3.61h0c-2.43-2.95-5.06-6.14-7.73-9.4-9.41-11.49-19.42-23.96-24.28-30.58-8.94-12.2-23-35.1-33.06-52.8,20.41-6.7,48.34-12.79,69.34-9.4,4.07,2.63,6.61,8.27,11.09,11.12.74.58.61,1.73-.25,2.12-10.95,5.44-41.1,17.14-46.63,22.52-1.71,15.54,30.4,22.27,69.06,26.62-.23.29-.45.57-.68.86Z"/>
      <path class="cls-2" d="M168.85,99.11c-.48.76-.57,4.63-.75,5.97-.05.37-.1.74-.17,1.11-.19,1.22-.44,2.44-.76,3.61-.29,1.08-.63,2.12-1.04,3.09-.62,1.5-2.85,4.16-1.78,5.81,1.59,1.57,2.83-1.54,3.75-3.12.19.04.09.44.05.65-.39,2.11-2.14,6.09-3.14,7.75-.56.92-2.85,2.9-1.21,4.34,1.52,1.34,3.41-2.84,4.39-4.22.53,3.65-1.37,6.01-3.38,7.24-1.19.72-3.4.59-2.78,3.36.52,2.34,5.25-.89,6.16-1.8v8.38c0,.59.17,1.03.43,1.31.71-1.23,1.37-2.48,2.01-3.74v-7.08c.57.34,1.44,1.26,2.37,2.09.49-1.1.96-2.21,1.41-3.34-.57-.42-1.15-.87-1.6-1.36-1.26-1.38-2.59-2.7-2.19-5.35.46-.75,3.26,5.22,4.79,3.13,1.42-1.95-.86-3.37-1.6-4.4-.83-1.16-2.54-3.73-2.87-5.31-.05-.24-.37-2.34.15-1.94.44,1.45,2.88,5.59,3.76,2.85.56-1.75-.96-3.32-1.56-4.75-.33-.79-.59-1.57-.82-2.34-.39-1.36-.63-2.68-.81-4.02-.27-2.01-.41-4.06-.68-6.34-.19-1.59-1.33-2.87-2.14-1.57Z"/>
      <path class="cls-2" d="M150.3,112.65c.41,1.42,1.33.97,2.11,1.07-.42,1.05-.87,2.05-1.5,2.85-1.08,1.39-3.09,1.72-2.26,4.5,1.4,1.53,2.88-.84,4.33-.53-.55,1.23-1.3,2.24-2.15,3-1.2,1.07-3.37,1.18-2.88,3.76.54,2.78,4.37-.49,5.23-1.64l.37.28v7.67c0,.11.2,2.05.23,2.21.24,1.31,1.72,1.81,2.13.21.79-3.14-.28-6.78.27-9.95.55-.71,2.72,3.58,4.32,1.84,2.03-2.21-1.89-4.09-2.8-5.13-.61-.7-1.12-1.75-1.71-2.54l.47-.71c1.02.64,2.86,3.13,3.74,1.12,1.03-2.34-1.01-3.08-1.94-4.13-.35-.4-1.78-2.11-1.89-2.54-.21-.76,1.02-.08,1.36-.19.72-.21.98-1.02.89-2.05-.11-1.37-1.06-1.7-1.57-2.74-.1-.21-.19-.41-.26-.62-.47-1.2-.66-2.5-.76-3.82-.14-1.7-.16-3.41-.48-4.93-.35-1.69-1.76-1.99-2.26-.26-.45,1.55-.31,3.24-.39,5.03-.05,1.21-.19,2.46-.68,3.72-.08.2-.17.4-.26.59-.57,1.2-2.14,2.13-1.63,3.91Z"/>
      <path class="cls-4" d="M23.13,33.66c-.57.61-1.66,2-3.05,4.01,4.77,2.26,11.98-2.38,10.91,1.65,2.66,1.52,6.96,1.51,10.46.63,4.26-7.79,8.36-10.58,13.81-1.16,2.78-1.26,6.63.04,9.31-1.55,2.72-1.62,2.05-5.64-.1-7.11-1.88-1.34-3.75-.61-5.58-1.67-1.41-5.11-7.23-6.29-11.1-5.47.07.81-.85,1.18-1.68,1.11-1.12-2.07-4.5-3.31-7.66-3.68-5.29,3.63-10.45,7.98-15.31,13.21Z"/>
      <path class="cls-4" d="M103.4,7.62c-3.43.35-8.16,1.01-7.29,6.18,1.54,4.89,7.65,2.87,11.89,3.81,4.67,3.24,9.87,3.62,15.35.9,4.14,2.09,9.38,2.4,13.62.25-.33-4.56,5.97.41,11.5-1.06-6.52-4.51-13.9-8.04-22.06-10.54-7.74-2.38-14.74-3.36-19.56-3.83-1.06,1.43-1.51,3.24-3.45,4.28Z"/>
      <path class="cls-11" d="M135.89,193.78c.32-.46.64-.92.97-1.39-.4-.33-.73-.58-.97-.7v2.09Z"/>
      <path class="cls-11" d="M135.89,182.6v4.11c0,.52,1.28,1.84,2.73,3.13.63-.92,1.26-1.86,1.9-2.79-.51-.13-1.06-.57-1.42-.92l-3.21-3.52Z"/>
      <path class="cls-11" d="M170.63,138.84c.84-1.64,1.63-3.31,2.37-4.99-.93-.83-1.81-1.75-2.37-2.09v7.08Z"/>
      <path class="cls-11" d="M174.85,118.14c-.88,2.74-3.32-1.39-3.76-2.85-.52-.4-.2,1.71-.15,1.94.33,1.57,2.05,4.15,2.87,5.31.74,1.03,3.03,2.45,1.6,4.4-1.53,2.09-4.33-3.88-4.79-3.13-.41,2.65.92,3.98,2.19,5.35.45.49,1.03.93,1.6,1.36,2.21-5.54,3.94-11.26,5.16-17.2-2.52-.93-4.9-1.68-7.1-2.27.23.76.49,1.55.82,2.34.59,1.43,2.11,3,1.56,4.75Z"/>
      <path class="cls-11" d="M168.19,132.9c-.91.91-5.65,4.14-6.16,1.8-.62-2.77,1.59-2.65,2.78-3.36,2.02-1.23,3.91-3.59,3.38-7.24-.98,1.39-2.87,5.56-4.39,4.22-1.64-1.44.65-3.42,1.21-4.34,1-1.66,2.75-5.64,3.14-7.75.05-.21.14-.61-.05-.65-.92,1.58-2.16,4.69-3.75,3.12-1.06-1.65,1.16-4.31,1.78-5.81.41-.97.74-2.01,1.04-3.09-.93-.18-1.82-.34-2.65-.47-2.32-.38-4.96-.71-7.75-.92.08.21.16.41.26.62.51,1.05,1.46,1.38,1.57,2.74.09,1.04-.17,1.85-.89,2.05-.34.1-1.56-.57-1.36.19.11.42,1.55,2.14,1.89,2.54.93,1.05,2.97,1.79,1.94,4.13-.89,2.01-2.72-.48-3.74-1.12l-.47.71c.58.78,1.09,1.84,1.71,2.54.9,1.04,4.83,2.91,2.8,5.13-1.59,1.74-3.77-2.54-4.32-1.84-.56,3.18.52,6.81-.27,9.95-.41,1.6-1.89,1.1-2.13-.21-.03-.16-.23-2.1-.23-2.21v-7.67l-.37-.28c-.86,1.15-4.69,4.42-5.23,1.64-.49-2.58,1.69-2.7,2.88-3.76.85-.75,1.6-1.77,2.15-3-1.44-.31-2.92,2.05-4.33.53-.83-2.78,1.18-3.1,2.26-4.5.63-.8,1.07-1.8,1.5-2.85-.78-.1-1.71.35-2.11-1.07-.51-1.78,1.07-2.71,1.63-3.91.09-.2.18-.4.26-.59-8.63-.29-17.91.19-22.27,3.73-.17.14-.62.44-1.19.79-3.01,5.19-7.1,9.68-11.97,13.16-.03.08-.08.16-.12.25-.34.58-.7.7-1.06.56h0c-.46.31-.93.61-1.4.9.5.9,1.07,1.68,1.54,2.23.78.94,3.62,2.66,1.91,4.75-1.38,1.7-4.16-3.29-4.64-2.75-.65,2.68,1.05,4.43,2.38,5.63,1.1.98,5.45,2.64,3.05,5-1.46,1.45-4.08-2.04-5.44-2.97,0,2.04-.02,4.08,0,6.12,0,1.08.48,4.75-.37,5.39-.36.27-1.36.22-1.64-.21-.65-.98-.1-10.29-.51-11.31-.17-.4-.26-.24-.48-.13-.88.47-4.38,5.22-5.03,1.93-.45-2.35,2.15-3.3,3.21-4.39,1.09-1.11,2.55-2.79,2.1-5.06-.88,1.29-2.58,4.08-3.86,2.44-.76-.98-.41-2.07.21-3.07-2.69.96-5.49,1.66-8.4,2.05-6.96,9.34-2.54,17.58,5.75,24.22.82,1.88,8.37-3.8,9.62-1.54,3.73,6.62-48.58,22.67-53.45,26.74-15.18,13.68,49.89,23.6,65.09,25.77,2.56-3.32,5.27-6.98,8.04-10.88v-5.52c-1.62.49-4.69,4.96-6.38,3.83-.57-.39-.72-1.57-.46-2.4.23-.75,2.9-2.36,3.64-3.01.55-.49,3.2-3.24,3.2-3.96v-4.12c-.94,1.36-4.31,6.45-5.64,4.41-1.29-1.99,2.17-4.37,2.92-5.53,1.39-2.13,2.25-5.62,2.53-8.53-.22-.35-1.61,2.07-1.88,2.38-1.07,1.25-3.14,2.41-2.81-.81.08-.77,1.52-2.13,1.98-2.99,1.29-2.4,2.15-7.65,2.48-10.74.25-2.43.15-5.62.47-7.8.3-2.11,2.14-2.33,2.51.06.95,6.18.2,14,3.19,19.3.57,1,2.33,2.21,1.11,4.02-1.27,1.92-3.13-2.71-4.04-3.7-.09,3.64,1.32,7.59,3.21,9.77.73.84,2.32,1.56,2.56,2.94,3.81-5.65,7.62-11.48,11.3-17.25-.29,0-.58-.19-.88-.65-1.07-1.71.69-3.06,1.18-3.89,2.26-3.85,2.46-9.63,2.79-14.51.49-1.68,1.94-1.41,2.28.28.34,1.68.31,4.43.62,6.45.11.73.25,1.46.39,2.18,2.82-4.54,5.48-8.93,7.89-13.02.41-.7.81-1.39,1.2-2.09-.26-.28-.43-.72-.43-1.31v-8.38ZM110.27,166.99c1.13-.28,6.16-.27,7.3,0,1.04.25,1.3,1.75.81,3.04-.57.86-7.06.08-8.3.34-1.26-.66-1.18-3.04.19-3.38ZM74.04,188.27c-.29.58-.67.78-1.13.86-2.6.46-5.78-.35-8.44,0-1.08-.31-1.28-3.12.37-3.41,1.73-.3,5.94-.26,7.7,0,.3.05,1.19.37,1.37.63.25.38.31,1.43.14,1.92ZM98.44,195.65c-1.67.25-5.47.28-7.11-.03-1.64-.3-2.04-2.18-.55-3.32l8.4-.05c1.64,1.43.99,3.14-.74,3.39ZM110.84,181.76c-.78.86-6.69-.08-8.08.25-1.01-.28-1.06-2.93.41-3.33,1.23-.33,5.2-.27,6.5-.04,1.2.22,2.34,1.85,1.16,3.11ZM123.27,201.84c-.21.32-.69.33-.98.37-1.67.21-6.14.34-7.69-.03-1.05-.25-1.3-1.79-.81-3.04.36-.24.79-.54,1.19-.61,1.46-.26,5.67-.3,7.1,0,.97.21,2.13,1.89,1.2,3.31ZM132.62,153.65c-1.34,1.69-4.51-2.6-5.93-2.86-.13,3.07.18,6.47,0,9.51-.03.46-.19,2.05-.26,2.43-.3,1.44-1.62,1.53-2.08,0-.4-1.35-.08-1.84-.08-2.98-.02-3.18,0-6.35,0-9.52-1.32.77-2.36,2.25-3.68,3.08-.96.59-3.07,1.91-3.25-.7-.15-2.09,1.25-1.94,2.19-2.62,1.25-.92,2.88-2.33,3.9-3.75.65-.91,1.03-1.31.85-2.84-.54-.84-2.64,4.44-4.22,2.28-1.54-2.08,1.16-3.83,2.05-5.15.91-1.36,2.06-3.33,1.8-5.37-.83.88-1.73,2.97-2.88,1.96-1.45-1.28.46-3.69.97-5,.99-2.54,1.42-4.52,1.53-7,.06-1.32-.03-2.84.96-3.61.09-.07.63-.49,1.15-.34.81.23,1.02,1.65,1.23,2.71.42,2.22.99,5.21,2.35,7.67.69,1.24,1.76,2.77,1.66,4.31-.08,1.39-1.49,1.61-2.18,1.02-.14-.12-2.03-3.62-1.73-1.64.27,1.83,1.69,4.48,2.59,5.74.88,1.23,3.52,2.89,1.98,4.98-1.51,2.03-3.38-1.93-4.51-3.12-.9,1.6.6,3.68,1.42,4.66.9,1.05,4.1,3.12,4.39,4.15.18.61.21,1.53-.17,2ZM136.21,134.55c-1.23-.55-1.05-3.48.39-3.56,1.39.22,3.95-.49,5.17.27.85.54.68,3.04-.54,3.33-.63.15-4.51.18-5.02-.04ZM148.74,145.94c-1.12.24-5.05.25-6.13-.05-1.59-.43-1.42-3.12.18-3.55,1.03-.28,5.08-.28,6.11,0,1.69.45,1.72,3.19-.16,3.6Z"/>
      <path class="cls-11" d="M76.81,143.45c1.19.04,1.72-1.48.79-2.22-9.39-7.7-12.86-6.6-24.71-9.79-4.81-2.31-6.26-6.25-11.46-2.23-8.09,4.39-13.18-5.88-19.13-11.71-5.59-4.6-6.43,4.15-16.75-3.02,2.81,14.66,7.32,28.37,11.1,35.27.78,1.42,1.6,2.92,2.47,4.46,15.55-3.92,40.77-11.22,57.69-10.75Z"/>
      <path class="cls-10" d="M54.51,183.85c5.53-5.38,35.68-17.09,46.63-22.52.87-.39,1-1.54.25-2.12-4.49-2.86-7.02-8.49-11.09-11.12-21-3.39-48.92,2.7-69.34,9.4,10.07,17.7,24.12,40.59,33.06,52.8,4.85,6.63,14.87,19.09,24.28,30.58.23-.9.39-1.8.48-2.65-.15-.21-.86.74-1.36,1.4-.51-.76-1-1.53-1.49-2.29.09-.1.17-.21.23-.3,1.24-2.01,2.07-6.39,2.39-8.98.25-2.03.14-4.69.45-6.52.29-1.76,2.06-1.94,2.41.05.92,5.17.2,11.71,3.08,16.13.55.84,2.25,1.85,1.07,3.36-1.23,1.61-3.02-2.27-3.9-3.09-.08,3.03,1.27,6.33,3.1,8.16.87.87,3.03,1.59,2.38,3.4-.24.65-.66.8-1.12.72,1.03,1.25,2.03,2.46,2.99,3.61,6.29-8.43,15.58-19.9,23.87-30.14,3.68-4.53,7.15-8.83,9.99-12.39.23-.28.45-.57.68-.86-38.66-4.35-70.77-11.08-69.06-26.62ZM75.95,162.49c1.51-.93,4.09-1.44,5.83-2.25,1.51-.71,5.27-3.37,6.5-3.18.18.03.5.14.62.33.36.54.33,1.89-.04,2.51-.35.57-3.25,2.18-3.95,2.54-1.99,1.06-6.5,3.2-8.47,3.38-1.48.13-1.97-2.41-.5-3.34ZM46.53,176.49c-1.74.81-5.19,2.52-6.88,2.68-1.78.16-2.02-2.33-.63-3.25,5.17-1.55,10.07-4.41,14.98-7.18,1.05-.06,1.58,1.54.89,2.77-.58,1.04-7.08,4.39-8.35,4.99ZM94.74,222.5c2.21.17,8.92,1.97,11.06,2.82,1.97.78,3.42,3.15,1.06,4.08-1.59.63-11.36-3.04-13.82-3.26-1.64-.77-.94-3.84,1.7-3.64ZM59.05,208.2l11.7,4.07c1.28.72.97,3.55-.57,3.43-1.73-.15-4.99-1.54-6.79-2.23-.76-.29-2.48-.75-3.73-1.53-.47-.74-.94-1.49-1.41-2.22.07-.45.32-.95.81-1.52Z"/>
      <path class="cls-5" d="M94.41,133.52c-.61.04-1.23.05-1.84.05-18.64,0-34.46-12.27-39.81-29.15-8.72,3.41-14.94,10.56-21.09,17.17-2.46,2.16,5.32,6.04,7.43,5,6.13-3.59,6.92-4.18,12.59.63,4.69,2.71,10.16,1.86,15.08,3.67,6.34,2.32,12.29,8.33,18.43,11.6,8.43,4.59,3.62.84,9.22-8.96Z"/>
      <path class="cls-5" d="M23.05,113.96c4.08,3.56,4.5,9.48,9.41,2.57.9-1.4,5.07-2.96,3.08-4.94-10.59-7.33-20.85-20.79-27.49-34.7l-4.35.55c-.36,2.29-.62,4.62-.75,6.98-.45,8.18.41,17.56,1.99,26.73.31-.24.76-.26,1.35.05,9.48,6.39,10.63-1.85,16.77,2.76Z"/>
      <path class="cls-5" d="M51.92,101.32c-.73-3.05-1.1-6.25-1.1-9.52,0-4.36.67-8.58,1.93-12.53-15.8-12.83,2.37-12.67-27.16,15-3.27,4.73,5.36,8.53,7.71,11.7,8.8,8.55,5.2.43,18.62-4.65Z"/>
      <path class="cls-5" d="M58.43,48.15l-4.23-.46-3.39,2.82-2.49-2.67c-.76,6.24-1.08,13.8-1.56,15.57-.11,3.87,3.21,9.25,6.94,13.15,2.87-7.31,7.75-13.62,13.95-18.25-2.88-1.55-6.32-6.11-9.22-10.17Z"/>
      <path class="cls-5" d="M23.53,91.96c18.92-16.81,20.85-24.5,22.89-44.73l-.14.11-3.67,3.3-2.5-2.43c-7.99,12.33-19.47,22.63-25.94,33.53,1.65,3.69,6.64,14.12,9.36,10.23Z"/>
      <path class="cls-5" d="M126.33,67.24c.84-.72,1.73-1.56,2.65-2.54,1.95-2.12,3.48-3.78,4.29-6,1.08-2.98.21-5.17-1.04-10.29l-2.87-3.09-.89.72-3.67,3.3-3.03-2.94c-2.51,3.29-5.03,6.6-7.8,9.56,4.83,2.89,9.05,6.75,12.37,11.29Z"/>
      <path class="cls-5" d="M152.74,63.75c-1.88-1.72-2.61-4.1-3.55-6.48-2.82-3.31-5.76-6.84-8.63-10.41l-4.18-.45-2.22,1.84c1.2,5.43,2.57,8.3,1.08,11.92-.4.96-1.21,2.02-2.82,4.11-1.61,2.09-3.19,3.83-4.58,5.2,4.1,6.47,6.48,14.13,6.48,22.33,0,1.77-.11,3.52-.33,5.24,10.34-9.71,12.78-19.57,18.74-33.3Z"/>
      <path class="cls-5" d="M173.15,62.43l-3.34,3.3-.07-.04c.25,3.69.62,7.41,1.12,10.19,3.49,6.88-2.91,11.45-6.63,16.55-.98,1.44-2.01,5.02-3.43,4.35-2.51-4.77,6.95-11.51,8.51-16.3-1.32-5.08-1.48-10.74-1.83-16.15l-2.57-1.54-4.52.95-.21-2.7c-1.56,1.14-3.14,2.24-4.78,3.26-6.26,15.39-10.34,26.61-22.43,38.07-.41,1.59-.92,3.14-1.52,4.66,5.26-2.25,13.95-2.83,21.41-2.6.08-1.79-.07-3.49.39-5.03.5-1.72,1.91-1.42,2.26.26.32,1.52.34,3.23.48,4.93.35.02.7.04,1.04.07,3.03.24,6.7.67,10.89,1.54.07-.37.12-.74.17-1.11.19-1.34.27-5.2.75-5.97.81-1.3,1.95-.02,2.14,1.57.27,2.28.41,4.34.68,6.34,2.7.67,5.59,1.52,8.6,2.59,1.41-8.32,1.88-17.07,1.43-26.29-.32-6.39-1.22-12.64-2.64-18.62-.82-.76-1.66-1.53-2.49-2.29l-3.42.02Z"/>
      <path class="cls-3" d="M11.37,76.64c.79,1.13,1.7-.25,2.51-.99,9.2-8.37,18.52-20.74,25.92-32.57-3.93.59-8.25-.1-11.25-2.48-2.81.8-7.14.67-10.12-.4-3.71,5.81-8.62,14.84-11.92,25.39,1.84,3.39,3.9,10.65,4.87,11.05Z"/>
      <path class="cls-3" d="M46.55,21.08c5.29-1.26,12.69.02,14.09,5.7,1.28.17,2.7.42,4,.9,5.32,1.62,5.61,9.6.89,11.86-3.74,2.03-6.12.58-8.73,1.56,1.28,1.71,2.59,3.6,3.97,5.45l1.87,2.05-.31-.03c2.55,3.17,5.39,5.98,8.75,7.23.08.03.14.06.2.09,6.24-3.71,13.52-5.85,21.3-5.85,6.73,0,13.1,1.6,18.74,4.45,22.04-23.08,14.58-32.12,32.19-8.63l1.32,1.44-.25-.03c.57.76,1.16,1.54,1.77,2.36,6.31,4.54,5.38,11.59,8.93,10.77,4.03-.76,9.58-8.87,13.37-8.76,2.6.08,6.47,5.63,8.68,7.93.15.08.29.15.43.24-3.71-12.61-9.85-23.83-17.91-32.36-2.54-2.7-5.29-5.18-8.23-7.45-3.39,1.51-7.7,1.76-11.36.75-4.86,3.47-11.09,3.57-16.97,1.58-4.26,1.72-11.66,2.25-15.48-.6-.96-.98-2.8-.87-4.01-.75-12.48,1.45-16.82-15.35-1.51-16.53.12-.49.31-.97.55-1.42-.21-.02-.41-.03-.58-.04l-.48-.03c-.36-.02-.93-.06-1.68-.08-.75-.03-1.68-.05-2.77-.05-10.54,0-33.46,1.78-55.24,15.25,1.72.85,3.32,2.07,4.46,3.01Z"/>
      <path class="cls-8" d="M131.85,36.01c-.22-.26-.5-.39-.81-.39-.29,0-.59.12-.79.35l-7.64,8.5,2.24,2.18,2.34-2.11,2.36-1.9,3.61,3.88,2.61-2.17,4.11.44-8.02-8.79Z"/>
      <path class="cls-8" d="M49.67,37.31c-.38-.45-1.19-.81-1.77-.82-.17,0-.32.03-.39.08l-6.76,9.51,1.92,1.87,2.34-2.11,2.36-1.9,3.61,3.88,2.61-2.17,4.11.44-8.02-8.79Z"/>
      <polygon class="cls-8" points="168.35 54.37 162.08 59.98 162.18 61.36 165.26 60.72 169.52 63.27 172.34 60.47 174.96 60.46 173.91 59.17 168.35 54.37"/>
      <polygon class="cls-8" points="7.21 75.02 5.05 70.24 4.05 75.42 7.21 75.02"/>
    </g>
  </g>
</svg>